# xmcd
#
# Track frame offsets: 
#        150
#        14978
#        25104
#        42611
#
# Disc length: 735 seconds
#
# Revision: 0
# Processed by: cddbd v1.5.2PL0 Copyright (c) Steve Scherf et al.
# Submitted via: ExactAudioCopy v0.99pb5
#
DISCID=3202dd04
DTITLE=Popterror - Nu som då
DYEAR=2011
DGENRE=A Cappella
TTITLE0=Mordviken
TTITLE1=Kanske är allt vi vet åt helvete
TTITLE2=Som i en dagdröm
TTITLE3=Nyårsnatten
EXTD=
EXTT0=
EXTT1=
EXTT2=
EXTT3=
PLAYORDER=
